<svg width="67" height="95" viewBox="0 0 67 95" fill="none" xmlns="http://www.w3.org/2000/svg">
<path fill-rule="evenodd" clip-rule="evenodd" d="M6.71784 45.6646C4.45695 57.8604 14.2217 69.9023 28.5406 72.5683C42.8515 75.2263 56.2952 67.4955 58.5561 55.2997C60.817 43.1039 51.0442 31.062 36.7333 28.4041C34.829 28.0475 32.9328 27.8773 31.0852 27.8773C19.0352 27.8773 8.67889 35.0895 6.71784 45.6646Z" fill="url(#paint0_radial_19_27)"/>
<path fill-rule="evenodd" clip-rule="evenodd" d="M32.1386 77.1711H33.7998C35.6555 77.1144 35.9716 77.0658 38.4513 76.7173L38.6295 76.6849C48.0458 74.9427 59.642 66.5312 63.5722 53.8411C63.7505 53.1685 63.9369 52.2771 64.0908 51.6045C60.9953 65.0482 46.0605 76.9928 32.1386 77.1711Z" fill="url(#paint1_radial_19_27)"/>
<path fill-rule="evenodd" clip-rule="evenodd" d="M3.85726 37.8528C3.84916 37.8852 3.84106 37.9176 3.84106 37.9419C3.84106 37.9582 3.83295 37.9744 3.83295 37.9825C3.83295 37.9987 3.82485 38.0149 3.82485 38.0392C3.81674 38.0473 3.81674 38.0635 3.81674 38.0797C3.80864 38.0959 3.80864 38.1121 3.80864 38.1283C3.80054 38.1445 3.80054 38.1607 3.80054 38.177C3.79243 38.1932 3.79243 38.2013 3.79243 38.2175C3.78433 38.2337 3.78433 38.2499 3.78433 38.2661C3.77623 38.2823 3.77623 38.2904 3.77623 38.3066C3.77623 38.3228 3.76812 38.3471 3.76812 38.3633C3.76812 38.3714 3.76002 38.3795 3.76002 38.3876C3.76002 38.412 3.75192 38.4282 3.75192 38.4525C3.75192 38.4606 3.75192 38.4606 3.75192 38.4606C2.5688 45.5998 3.97071 52.5931 7.27695 58.4682C7.74696 59.3029 8.25748 60.1213 8.80042 60.9074C8.80852 60.9074 8.80852 60.9155 8.80852 60.9155C8.81662 60.9317 8.83283 60.9479 8.84093 60.9641C8.84904 60.9722 8.84904 60.9803 8.85714 60.9884C8.86524 60.9965 8.87335 61.0127 8.88145 61.0208C8.89766 61.0451 8.91387 61.0613 8.92197 61.0856C8.93007 61.0856 8.93007 61.0937 8.93818 61.1018C8.95438 61.118 8.96249 61.1343 8.97059 61.1505C8.97869 61.1586 8.9868 61.1667 8.9868 61.1748C9.19749 61.4746 9.41629 61.7663 9.63508 62.0581C3.66278 51.7909 12.5037 32.9988 32.8112 24.174C31.0932 22.9666 30.7205 22.764 28.9215 21.7835C30.0398 21.7349 31.0122 21.7025 31.9036 21.7025C34.675 21.7025 36.6766 21.9537 39.8126 22.5047C44.6991 23.5015 48.0863 25.268 50.1203 26.3296C48.2079 27.8936 47.2193 28.9389 45.396 31.0864C43.2647 33.7929 42.3652 35.2111 40.7607 38.104C40.0233 35.7216 39.9504 35.519 39.0995 32.9907C29.4077 36.1916 20.9233 43.3065 16.5636 50.705C19.3107 49.0843 23.0788 48.1605 27.3008 48.1605C27.4629 48.1605 27.633 48.1605 27.7951 48.1686C29.0511 46.8072 30.445 45.4863 31.9846 44.2303C31.2796 43.6468 30.3315 42.877 29.6184 42.2935C30.6637 42.253 31.3606 42.2287 31.9927 42.2287C32.876 42.2287 33.6458 42.2692 35.064 42.3422C37.0331 42.4961 38.4026 42.7879 40.1368 43.1525C39.3183 45.1055 39.1968 45.462 38.5728 47.4717C38.2486 48.7034 38.1109 49.295 37.9812 50.0567C45.6229 52.8524 50.6065 58.2737 49.6503 63.4276C48.7103 68.468 42.3652 71.7094 34.4562 71.7094C32.641 71.7094 30.7367 71.5392 28.7999 71.1745C28.3137 71.0854 27.8356 70.9882 27.3656 70.8747C29.043 72.7385 31.8226 73.8892 35.7609 73.8892C36.4335 73.8892 37.1466 73.8568 37.884 73.792L37.7219 73.8082C36.0526 73.9946 35.8581 74.0027 33.4189 74.0351L31.8874 73.9621C26.9442 73.5246 23.7109 71.7094 21.9849 69.0838C18.2653 67.4307 15.3238 65.1293 13.622 62.5929C14.092 65.421 15.6074 67.925 18.395 69.8374C18.63 69.9752 18.8731 70.113 19.1162 70.2507H19.1243C19.1729 70.2831 19.2297 70.3156 19.2783 70.3399C19.2945 70.348 19.3026 70.348 19.3107 70.3561C19.3269 70.3642 19.335 70.3723 19.3512 70.3804C19.3593 70.3885 19.3755 70.3885 19.3836 70.3966C19.3998 70.4047 19.4079 70.4128 19.4241 70.4128C19.4404 70.429 19.4647 70.4371 19.489 70.4533C19.4971 70.4533 19.5052 70.4614 19.5133 70.4695C19.5295 70.4776 19.5457 70.4857 19.5619 70.4938C19.57 70.4938 19.5781 70.5019 19.5862 70.51C19.6105 70.5181 19.6348 70.5262 19.651 70.5425C19.6591 70.5425 19.6591 70.5425 19.6591 70.5425C19.6916 70.5587 19.7159 70.5749 19.7402 70.583C19.7402 70.5911 19.7483 70.5911 19.7483 70.5911C19.7726 70.6073 19.7969 70.6154 19.8212 70.6316C19.8212 70.6316 19.8293 70.6316 19.8374 70.6316C19.886 70.664 19.9428 70.6883 19.9914 70.7207C20.0238 70.7288 20.0481 70.745 20.0724 70.7613C20.0805 70.7613 20.0805 70.7613 20.0805 70.7613C22.6331 72.0578 25.4046 73.014 28.3542 73.5651C28.3867 73.5651 28.411 73.5732 28.4353 73.5732C28.4434 73.5813 28.4515 73.5813 28.4596 73.5813C28.4839 73.5813 28.5001 73.5894 28.5244 73.5894C28.5325 73.5894 28.5325 73.5975 28.5406 73.5975C28.5649 73.5975 28.5892 73.6056 28.6136 73.6056C28.6217 73.6056 28.6217 73.6056 28.6217 73.6137C29.3267 73.7352 30.0317 73.8325 30.7367 73.9054C30.7367 73.9054 30.7367 73.9054 30.7448 73.9135C30.7691 73.9135 30.8015 73.9135 30.8258 73.9216C31.6443 74.0027 32.4627 74.0513 33.2731 74.0756C33.2812 74.0756 33.2893 74.0756 33.2893 74.0756C33.3055 74.0756 33.3217 74.0756 33.3298 74.0756C33.5486 74.0756 33.7593 74.0837 33.9781 74.0837C43.5484 74.0837 52.4217 69.5619 58.1185 62.2363C61.0196 58.4925 63.1022 54.0194 64.026 49.0357C64.3744 47.1557 64.5446 45.2756 64.5446 43.428C64.5527 28.947 54.2612 16.0705 39.529 13.3315C37.6409 12.9831 35.7609 12.8129 33.9052 12.8129C19.4485 12.8129 6.58815 23.1125 3.85726 37.8528ZM4.45692 50.8023C4.24623 49.6597 4.03554 48.12 3.91399 46.9612C3.73571 41.5075 5.80211 33.1122 16.6203 24.0849C16.28 23.9228 15.8262 23.7284 15.4858 23.5825C17.3334 22.7397 17.7224 22.602 19.8536 21.8726C21.6688 21.2892 22.9978 21.0299 25.0075 20.6328C23.7676 22.1158 23.5651 22.3913 22.2928 24.2146C21.053 26.1513 20.8747 26.4998 19.6835 28.7606C19.4241 28.1529 19.1 27.3506 18.8488 26.7429C10.8911 32.7557 2.55259 43.4442 5.25917 53.7762C4.98365 52.893 4.68382 51.7017 4.45692 50.8023ZM35.931 49.3922C36.0688 49.4328 36.1985 49.4733 36.3362 49.5138C36.2795 49.4165 36.2147 49.3193 36.1579 49.2302C36.085 49.2869 36.004 49.3355 35.931 49.3922Z" fill="url(#paint2_radial_19_27)"/>
<path fill-rule="evenodd" clip-rule="evenodd" d="M27.4061 48.1605H27.398H27.3899H27.3818H27.3737H27.3656H27.3575H27.3494H27.3413H27.3332H27.3251H27.317H27.3089H27.3008H27.2927H27.2846H27.2765H27.2684H27.2603H27.2522H27.2441H27.236H27.2279H27.2198H27.2117H27.2035H27.1954H27.1873H27.1549C27.1468 48.1605 27.1468 48.1605 27.1387 48.1605C27.1306 48.1605 27.1225 48.1605 27.1063 48.1605C27.0982 48.1605 27.0982 48.1605 27.0901 48.1605C27.082 48.1605 27.0739 48.1605 27.0577 48.1605C27.0577 48.1605 27.0496 48.1605 27.0415 48.1605C27.0334 48.1605 27.0253 48.1605 27.0091 48.1605C27.0091 48.1605 27.001 48.1605 26.9929 48.1605C26.9848 48.1605 26.9766 48.1605 26.9604 48.1605C26.9604 48.1605 26.9523 48.1605 26.9442 48.1605C26.9361 48.1605 26.928 48.1605 26.9199 48.1605C26.9118 48.1605 26.9037 48.1605 26.8956 48.1605C26.8875 48.1605 26.8794 48.1605 26.8713 48.1605C26.8632 48.1605 26.8551 48.1605 26.847 48.1605C26.8389 48.1686 26.8308 48.1686 26.8227 48.1686C26.8146 48.1686 26.8065 48.1686 26.7984 48.1686C26.7903 48.1686 26.7822 48.1686 26.7741 48.1686C26.766 48.1686 26.7579 48.1686 26.7579 48.1686C26.7416 48.1686 26.7335 48.1686 26.7254 48.1686C26.7173 48.1686 26.7092 48.1686 26.7092 48.1686C26.693 48.1686 26.6849 48.1686 26.6768 48.1686C26.6687 48.1686 26.6687 48.1686 26.6606 48.1686C26.6525 48.1686 26.6363 48.1686 26.6282 48.1686C26.6201 48.1686 26.6201 48.1686 26.612 48.1686C26.5796 48.1686 26.5553 48.1686 26.531 48.1686C26.5147 48.1686 26.4985 48.1686 26.4823 48.1686C26.4823 48.1686 26.4742 48.1686 26.4742 48.1767C26.458 48.1767 26.4499 48.1767 26.4418 48.1767C26.4337 48.1767 26.4256 48.1767 26.4256 48.1767C26.4175 48.1767 26.4094 48.1767 26.4013 48.1767C26.3932 48.1767 26.3851 48.1767 26.377 48.1767C26.3689 48.1767 26.3608 48.1767 26.3527 48.1767C26.3446 48.1767 26.3365 48.1767 26.3284 48.1767C26.3203 48.1767 26.3122 48.1767 26.3041 48.1767C26.296 48.1767 26.2878 48.1767 26.2797 48.1767C26.2716 48.1767 26.2635 48.1767 26.2554 48.1767C26.2473 48.1767 26.2392 48.1767 26.2392 48.1848C26.223 48.1848 26.223 48.1848 26.2068 48.1848C26.1987 48.1848 26.1987 48.1848 26.1906 48.1848C26.1825 48.1848 26.1744 48.1848 26.1582 48.1848C26.1582 48.1848 26.1501 48.1848 26.142 48.1848C26.1339 48.1848 26.1258 48.1848 26.1177 48.1848C26.1096 48.1848 26.1015 48.1848 26.1015 48.1848C26.0853 48.1848 26.0772 48.1848 26.0691 48.1848C26.061 48.1848 26.061 48.1848 26.0528 48.1848C26.0447 48.1848 26.0285 48.1929 26.0204 48.1929C26.0204 48.1929 26.0123 48.1929 26.0042 48.1929C25.9961 48.1929 25.988 48.1929 25.9718 48.1929C25.8341 48.201 25.7044 48.2091 25.5666 48.2172C25.5342 48.2172 25.5099 48.2172 25.4775 48.2172C22.7061 48.4036 20.1778 48.9952 18.079 49.9271H18.0709C18.0709 49.9352 18.0628 49.9352 18.0547 49.9352C18.0466 49.9433 18.0466 49.9433 18.0385 49.9433C18.0303 49.9514 18.0303 49.9514 18.0303 49.9514C18.0141 49.9514 18.006 49.9595 17.9979 49.9595C17.9979 49.9676 17.9979 49.9676 17.9979 49.9676C17.9817 49.9676 17.9736 49.9757 17.9655 49.9838H17.9574C17.4712 50.2026 17.0093 50.4457 16.5636 50.705C14.165 54.7811 13.0224 58.9544 13.622 62.5929C14.0515 63.2331 14.5539 63.8571 15.1293 64.4567H15.1374C15.1455 64.4648 15.1536 64.481 15.1617 64.4891C15.1617 64.4891 15.1617 64.4891 15.1698 64.4891C15.2103 64.5378 15.2508 64.5783 15.2914 64.6188C15.2995 64.6269 15.3157 64.6431 15.3238 64.6512C15.3238 64.6512 15.3238 64.6512 15.3238 64.6593C15.3319 64.6593 15.34 64.6755 15.3481 64.6836C15.3562 64.6836 15.3562 64.6836 15.3562 64.6917C15.3643 64.6917 15.3724 64.7079 15.3805 64.7079C15.3886 64.716 15.3886 64.716 15.3886 64.716C15.3967 64.7241 15.4048 64.7403 15.421 64.7484C15.4453 64.7728 15.4615 64.789 15.4858 64.8133C15.4858 64.8133 15.4858 64.8133 15.4939 64.8214C15.502 64.8295 15.5102 64.8376 15.5183 64.8376C15.5183 64.8457 15.5183 64.8457 15.5264 64.8538C15.5345 64.8619 15.5426 64.8619 15.5426 64.87C15.5507 64.8781 15.5507 64.8781 15.5588 64.8862C15.5669 64.8862 15.575 64.8943 15.575 64.9024C15.5831 64.9024 15.5831 64.9105 15.5912 64.9105C15.5993 64.9186 15.5993 64.9267 15.6074 64.9348C15.6155 64.9348 15.6155 64.9429 15.6236 64.9429C15.6398 64.9591 15.6641 64.9834 15.6803 64.9997C15.6884 65.0078 15.6884 65.0078 15.6965 65.0159C15.7046 65.024 15.7046 65.024 15.7127 65.0321C15.7208 65.0402 15.7208 65.0402 15.7289 65.0402C15.7371 65.0483 15.7371 65.0564 15.7452 65.0645C15.7533 65.0645 15.7533 65.0726 15.7614 65.0726C15.7695 65.0807 15.7695 65.0888 15.7776 65.0888C15.7857 65.0969 15.7857 65.0969 15.7938 65.105C15.8019 65.1131 15.81 65.1212 15.81 65.1212C15.8181 65.1293 15.8181 65.1293 15.8262 65.1374C15.8424 65.1536 15.8667 65.1698 15.891 65.1941C15.891 65.1941 15.891 65.2022 15.8991 65.2022C15.9072 65.2104 15.9153 65.2185 15.9153 65.2185C15.9234 65.2266 15.9315 65.2266 15.9315 65.2347C15.9396 65.2428 15.9477 65.2428 15.9558 65.2509C15.9558 65.259 15.9639 65.259 15.9639 65.2671C15.9721 65.2671 15.9802 65.2752 15.9883 65.2833L15.9964 65.2914C16.0045 65.2995 16.0126 65.3076 16.0207 65.3076C16.0207 65.3157 16.0288 65.3238 16.0288 65.3238C16.045 65.3319 16.0531 65.34 16.0612 65.3481C16.0612 65.3481 16.0612 65.3481 16.0612 65.3562C16.0774 65.3643 16.0855 65.3724 16.0936 65.3805C16.1017 65.3886 16.1017 65.3886 16.1098 65.3886C16.1179 65.3967 16.126 65.4048 16.1341 65.4129C16.1341 65.4129 16.1341 65.421 16.1422 65.421C16.1503 65.4291 16.1584 65.4372 16.1665 65.4372C16.1665 65.4454 16.1746 65.4454 16.1746 65.4535C16.1827 65.4616 16.1908 65.4616 16.199 65.4697C16.199 65.4778 16.2071 65.4778 16.2071 65.4778C16.2152 65.4859 16.2233 65.494 16.2314 65.5021C16.2395 65.5021 16.2395 65.5102 16.2395 65.5102C16.2557 65.5183 16.2638 65.5264 16.2719 65.5345C16.2719 65.5345 16.2719 65.5426 16.28 65.5426C16.2881 65.5507 16.2962 65.5588 16.3124 65.5669C16.3124 65.575 16.3205 65.575 16.3205 65.575C16.3286 65.5831 16.3367 65.5912 16.3448 65.5993C16.3529 65.5993 16.3529 65.6074 16.3529 65.6074C16.361 65.6155 16.3691 65.6236 16.3772 65.6317C16.3853 65.6317 16.3853 65.6317 16.3934 65.6398C16.4015 65.6479 16.4096 65.6479 16.4177 65.656C16.4177 65.6641 16.4259 65.6641 16.4259 65.6641C16.434 65.6723 16.4421 65.6804 16.4502 65.6885L16.4583 65.6966C16.4745 65.7047 16.4826 65.7128 16.4907 65.7209C16.4907 65.7209 16.4907 65.7209 16.4988 65.729C16.5069 65.7371 16.515 65.7452 16.5312 65.7533L16.5393 65.7614C16.5474 65.7695 16.5555 65.7776 16.5636 65.7857C16.5717 65.7857 16.5717 65.7857 16.5717 65.7938C16.5798 65.8019 16.5879 65.8019 16.596 65.81C16.6041 65.8181 16.6041 65.8181 16.6122 65.8181C16.6203 65.8262 16.6284 65.8343 16.6365 65.8424L16.6446 65.8505C16.6527 65.8586 16.669 65.8667 16.6771 65.8748C16.6771 65.8748 16.6771 65.8748 16.6771 65.8829C16.7176 65.9073 16.75 65.9397 16.7905 65.964C16.7905 65.9721 16.7905 65.9721 16.7986 65.9721C16.8067 65.9802 16.8148 65.9883 16.831 65.9964V66.0045C16.8472 66.0126 16.8553 66.0207 16.8634 66.0288H16.8715C16.8796 66.0369 16.8878 66.045 16.904 66.0612C16.9526 66.1017 17.0093 66.1423 17.0579 66.1747C17.0579 66.1828 17.0579 66.1828 17.066 66.1828C17.0741 66.1909 17.0822 66.199 17.0984 66.2071C17.1147 66.2233 17.1228 66.2314 17.139 66.2395C18.4274 67.2362 19.9347 68.1357 21.604 68.9137C21.6202 68.9218 21.6364 68.9218 21.6526 68.9299L21.6607 68.938C21.6688 68.9461 21.685 68.9461 21.6931 68.9542C21.7013 68.9542 21.7094 68.9542 21.7094 68.9623C21.7256 68.9623 21.7337 68.9704 21.7418 68.9704C21.7499 68.9785 21.758 68.9785 21.7661 68.9866C21.7661 68.9866 21.7742 68.9866 21.7823 68.9947C21.7904 68.9947 21.7985 69.0028 21.8147 69.0028C21.8714 69.0352 21.9281 69.0595 21.9849 69.0838C18.5652 63.8814 21.0368 55.4861 27.7951 48.1686C27.6654 48.1605 27.5358 48.1605 27.4061 48.1605ZM29.9912 54.8054C25.048 60.721 24.0513 67.1957 27.3656 70.8747C27.552 70.9233 27.7465 70.9639 27.941 71.0044C27.9491 71.0044 27.9572 71.0044 27.9572 71.0044C27.9734 71.0125 27.9896 71.0125 28.0058 71.0206C28.022 71.0206 28.0301 71.0206 28.0382 71.0287C28.0625 71.0287 28.0868 71.0368 28.103 71.0368C28.1192 71.0449 28.1355 71.0449 28.1436 71.0449C28.1598 71.053 28.1679 71.053 28.1841 71.053C28.2003 71.0611 28.2165 71.0611 28.2327 71.0692C28.2489 71.0692 28.2651 71.0692 28.2732 71.0773C28.2975 71.0773 28.3137 71.0773 28.3299 71.0854C28.338 71.0854 28.3461 71.0935 28.3624 71.0935C28.3786 71.0935 28.4029 71.1016 28.4272 71.1016C28.4353 71.1097 28.4434 71.1097 28.4515 71.1097C28.4677 71.1097 28.492 71.1178 28.5082 71.1178C28.5244 71.1259 28.5325 71.1259 28.5406 71.1259C28.5649 71.134 28.5893 71.134 28.6136 71.1421H28.6217C28.646 71.1502 28.6703 71.1502 28.6946 71.1583C28.7027 71.1583 28.7108 71.1583 28.7189 71.1583C28.7432 71.1664 28.7756 71.1745 28.7999 71.1745C29.4239 71.2961 30.0479 71.3852 30.6638 71.4663C38.7349 72.4792 45.8984 70.2264 48.6131 66.0126C49.1236 65.2185 49.4802 64.3514 49.6503 63.4276C49.6503 63.4114 49.6503 63.4033 49.6584 63.3952C49.6584 63.3871 49.6584 63.3871 49.6584 63.379C49.6584 63.3708 49.6584 63.3627 49.6584 63.3627C49.6584 63.3546 49.6584 63.3465 49.6665 63.3465C49.6665 63.3384 49.6665 63.3303 49.6665 63.3222V63.3141C49.6665 63.306 49.6746 63.2979 49.6746 63.2898C49.6746 63.2898 49.6746 63.2817 49.6746 63.2736C49.6746 63.2655 49.6746 63.2574 49.6746 63.2493C49.6827 63.2412 49.6827 63.2412 49.6827 63.2331C49.6827 63.225 49.6827 63.2169 49.6827 63.2088C49.6827 63.2088 49.6827 63.2007 49.6908 63.1926C49.6908 63.1926 49.6908 63.1845 49.6908 63.1764C49.6908 63.1683 49.6908 63.1683 49.6908 63.1602C49.6908 63.1521 49.6908 63.1521 49.6908 63.1439C49.699 63.1358 49.699 63.1358 49.699 63.1277C49.699 63.1196 49.699 63.1196 49.699 63.1115C49.699 63.1034 49.699 63.1034 49.699 63.0953V63.0872C49.7071 63.071 49.7071 63.0548 49.7071 63.0467C49.7071 63.0386 49.7071 63.0386 49.7071 63.0305C49.7152 63.0224 49.7152 63.0143 49.7152 63.0143C49.7152 63.0062 49.7152 62.9981 49.7152 62.9981C49.7152 62.99 49.7152 62.9819 49.7152 62.9738V62.9657C49.7152 62.9576 49.7233 62.9495 49.7233 62.9414V62.9333C49.7233 62.9089 49.7314 62.8846 49.7314 62.8522C49.7314 62.8441 49.7314 62.836 49.7314 62.8279C49.7314 62.8198 49.7314 62.8198 49.7314 62.8198C49.7314 62.8117 49.7395 62.8036 49.7395 62.7955C49.7395 62.7874 49.7395 62.7874 49.7395 62.7874C49.7395 62.7793 49.7395 62.7712 49.7395 62.7631C49.7395 62.755 49.7395 62.755 49.7395 62.755C49.7395 62.7307 49.7476 62.6983 49.7476 62.6739V62.6658C49.7476 62.6577 49.7476 62.6496 49.7476 62.6415C49.7476 62.6415 49.7476 62.6415 49.7476 62.6334C49.7476 62.6253 49.7476 62.6172 49.7476 62.6091C49.7557 62.5686 49.7557 62.5281 49.7557 62.4876C49.7557 62.4795 49.7557 62.4714 49.7557 62.4633C49.7557 62.4551 49.7557 62.4551 49.7557 62.4551C49.7557 62.447 49.7638 62.4389 49.7638 62.4308C49.7638 62.4227 49.7638 62.4227 49.7638 62.4227C49.7638 62.3741 49.7638 62.3255 49.7638 62.2769C49.7638 62.212 49.7638 62.1553 49.7638 62.0905C49.7557 60.4374 49.156 58.7761 48.0945 57.2041C47.9 56.9204 47.6893 56.6368 47.4624 56.3613C47.4138 56.3046 47.3732 56.2478 47.3246 56.1911C47.2436 56.0858 47.1544 55.9885 47.0653 55.8832C47.0572 55.8751 47.0491 55.867 47.041 55.8589C44.9584 53.5089 41.8061 51.4587 37.9812 50.0567C37.9083 50.5024 37.8354 51.0049 37.7381 51.7261C37.3087 51.0697 36.7819 50.2188 36.3362 49.5138C36.3038 49.4976 36.2714 49.4895 36.2471 49.4814C36.1417 49.449 36.0364 49.4247 35.9311 49.3923C33.6215 51.0211 31.6281 52.8444 29.9912 54.8054Z" fill="url(#paint3_linear_19_27)"/>
<path fill-rule="evenodd" clip-rule="evenodd" d="M10.9317 63.8733C13.0224 66.0369 13.1925 66.2152 14.8132 67.5036C17.2929 69.2783 17.3902 69.3431 18.9785 70.2183C18.7759 70.0968 18.5814 69.9671 18.395 69.8375C15.4453 68.0952 12.836 65.8748 10.648 63.3141C10.5751 63.2817 10.4941 63.2574 10.413 63.225C10.5751 63.4438 10.7534 63.6626 10.9317 63.8733Z" fill="url(#paint4_radial_19_27)"/>
<path fill-rule="evenodd" clip-rule="evenodd" d="M10.413 63.225C10.4941 63.2574 10.5751 63.2817 10.648 63.3141C10.2996 62.9008 9.96735 62.4795 9.6351 62.0581C9.8701 62.4632 10.1294 62.8522 10.413 63.225Z" fill="url(#paint5_radial_19_27)"/>
<path fill-rule="evenodd" clip-rule="evenodd" d="M31.9036 21.7025H31.855C30.9798 21.7106 30.0236 21.7349 28.9215 21.7835C30.7205 22.764 31.0932 22.9666 32.8112 24.174C12.5037 32.9988 3.66278 51.7909 9.63508 62.058C9.96733 62.4794 10.2996 62.9008 10.648 63.3141C12.836 65.8748 15.4453 68.0952 18.395 69.8374C15.6074 67.925 14.092 65.421 13.622 62.5929C12.3011 60.6237 11.7258 58.5168 12.1148 56.4423C12.5524 54.0923 14.165 52.1312 16.5636 50.705C20.9233 43.3065 29.4077 36.1916 39.0995 32.9907C39.9504 35.519 40.0233 35.7216 40.7607 38.104C42.3652 35.211 43.2647 33.7929 45.396 31.0863C47.2193 28.9389 48.2079 27.8936 50.1203 26.3296C48.0863 25.268 44.6991 23.5014 39.8126 22.5047C36.6766 21.9537 34.675 21.7025 31.9036 21.7025Z" fill="url(#paint6_radial_19_27)"/>
<path fill-rule="evenodd" clip-rule="evenodd" d="M12.1148 56.4423C11.7258 58.5168 12.3012 60.6237 13.622 62.5929C13.0224 58.9544 14.165 54.7811 16.5636 50.705C14.165 52.1312 12.5524 54.0923 12.1148 56.4423Z" fill="url(#paint7_linear_19_27)"/>
<path fill-rule="evenodd" clip-rule="evenodd" d="M31.7983 19.0607H31.7415C30.4531 19.0607 29.0512 19.1256 27.3332 19.2633C29.2619 20.3006 29.6589 20.5113 31.5227 21.7916C8.97871 32.9745 0.502415 56.2478 9.6432 66.7581C11.9203 69.0919 12.1067 69.2783 13.8651 70.664C16.5474 72.5521 16.6528 72.6251 18.3707 73.5489C3.32244 64.4405 18.079 39.2142 38.4756 31.4024C39.4561 34.19 39.5371 34.4169 40.3961 37.0344C42.0006 33.7605 42.9082 32.1479 45.0799 29.0686C46.9357 26.6051 47.9486 25.4139 49.9259 23.6068C47.7379 22.4966 44.0913 20.6409 38.8807 19.7009C36.0607 19.2714 34.1078 19.0607 31.7983 19.0607Z" fill="url(#paint8_radial_19_27)"/>
<path fill-rule="evenodd" clip-rule="evenodd" d="M26.9361 47.0746C20.6478 54.7568 17.9574 63.3141 19.9185 69.335C21.6526 70.2102 23.5732 70.9477 25.6234 71.523C23.7352 67.2362 24.9913 61.0046 29.2537 55.0809C31.0041 52.658 33.1678 50.3971 35.7042 48.355C36.2471 49.1978 36.9683 50.3242 37.5193 51.1669C37.6166 50.1216 37.6814 49.4733 37.7706 48.8493C36.3038 48.3631 34.7641 47.9579 33.1596 47.6581C31.0446 47.261 28.962 47.0746 26.9767 47.0746H26.9361Z" fill="url(#paint9_linear_19_27)"/>
<defs>
<radialGradient id="paint0_radial_19_27" cx="0" cy="0" r="1" gradientUnits="userSpaceOnUse" gradientTransform="translate(30.0149 63.5944) rotate(10.7942) scale(12.358 10.7779)">
<stop stop-color="#0CAEE5"/>
<stop offset="0.490196" stop-color="#318ACA"/>
<stop offset="0.768627" stop-color="#016EAD"/>
<stop offset="0.921569" stop-color="#015485"/>
<stop offset="1" stop-color="#015485"/>
</radialGradient>
<radialGradient id="paint1_radial_19_27" cx="0" cy="0" r="1" gradientUnits="userSpaceOnUse" gradientTransform="translate(48.1143 64.3919) scale(4.37083 4.37529)">
<stop stop-color="#80A84B"/>
<stop offset="0.4" stop-color="#70A24C"/>
<stop offset="1" stop-color="#04532D"/>
</radialGradient>
<radialGradient id="paint2_radial_19_27" cx="0" cy="0" r="1" gradientUnits="userSpaceOnUse" gradientTransform="translate(34.5543 43.4438) rotate(10.6651) scale(9.13396 9.25331)">
<stop stop-color="#15AAE2"/>
<stop offset="0.631373" stop-color="#257BBE"/>
<stop offset="0.960784" stop-color="#0A62AE"/>
<stop offset="1" stop-color="#0A62AE"/>
</radialGradient>
<linearGradient id="paint3_linear_19_27" x1="32.8869" y1="48.7287" x2="31.1353" y2="70.6994" gradientUnits="userSpaceOnUse">
<stop stop-color="#2F9CD7"/>
<stop offset="1" stop-color="#97D8F2"/>
</linearGradient>
<radialGradient id="paint4_radial_19_27" cx="0" cy="0" r="1" gradientUnits="userSpaceOnUse" gradientTransform="translate(33.6268 71.824) rotate(-90) scale(46.3897 33.3583)">
<stop stop-color="#008047"/>
<stop offset="0.388235" stop-color="#006963"/>
<stop offset="1" stop-color="#00498E"/>
</radialGradient>
<radialGradient id="paint5_radial_19_27" cx="0" cy="0" r="1" gradientUnits="userSpaceOnUse" gradientTransform="translate(27.2629 40.6015) scale(7.44365 7.45109)">
<stop stop-color="#1E7C4D"/>
<stop offset="0.4" stop-color="#147A4D"/>
<stop offset="1" stop-color="#00442A"/>
</radialGradient>
<radialGradient id="paint6_radial_19_27" cx="0" cy="0" r="1" gradientUnits="userSpaceOnUse" gradientTransform="translate(35.3035 43.3646) rotate(11.535) scale(8.4537 9.22608)">
<stop stop-color="#0082C8"/>
<stop offset="0.631373" stop-color="#0066B0"/>
<stop offset="0.960784" stop-color="#0056A6"/>
<stop offset="1" stop-color="#0056A6"/>
</radialGradient>
<linearGradient id="paint7_linear_19_27" x1="20.597" y1="51.1074" x2="7.2099" y2="62.3876" gradientUnits="userSpaceOnUse">
<stop stop-color="#0078C0"/>
<stop offset="1" stop-color="#0091CE"/>
</linearGradient>
<radialGradient id="paint8_radial_19_27" cx="0" cy="0" r="1" gradientUnits="userSpaceOnUse" gradientTransform="translate(30.6068 46.3014) scale(6.63757 7.47922)">
<stop stop-color="#CEE18C"/>
<stop offset="1" stop-color="#A7D04F"/>
</radialGradient>
<linearGradient id="paint9_linear_19_27" x1="25.0092" y1="49.5366" x2="32.0466" y2="69.0846" gradientUnits="userSpaceOnUse">
<stop stop-color="#CEE18C"/>
<stop offset="1" stop-color="#A7D04F"/>
</linearGradient>
</defs>
</svg>
